# xmcd CD database file
#
# Track frame offsets:
#	150
#	19480
#	36039
#	52140
#
# Disc length: 906 seconds
#
# Revision: 3
# Processed by: cddbd v1.5.2PL0 Copyright (c) Steve Scherf et al.
# Submitted via: CDex 1.70beta2
#
DISCID=32038804
DTITLE=Vibekinkz feat. Maliq - Like The Wind
DYEAR=2006
DGENRE=R&B
TTITLE0=Like The Wind (Video Version)
TTITLE1=Like The Wind (Radio Version)
TTITLE2=Like The Wind (Acoustic Mix)
TTITLE3=Come Wit Me
EXTD=YEAR: 2006
EXTT0=
EXTT1=
EXTT2=
EXTT3=
PLAYORDER=
